<?xml version="1.0" encoding="UTF-8" standalone="no"?>
<!-- Created with Inkscape (http://www.inkscape.org/) -->

<svg
   xmlns:dc="http://purl.org/dc/elements/1.1/"
   xmlns:cc="http://creativecommons.org/ns#"
   xmlns:rdf="http://www.w3.org/1999/02/22-rdf-syntax-ns#"
   xmlns:svg="http://www.w3.org/2000/svg"
   xmlns="http://www.w3.org/2000/svg"
   xmlns:sodipodi="http://sodipodi.sourceforge.net/DTD/sodipodi-0.dtd"
   xmlns:inkscape="http://www.inkscape.org/namespaces/inkscape"
   width="64"
   height="64"
   viewBox="0 0 16.933333 16.933334"
   version="1.1"
   id="svg990"
   inkscape:version="0.92.5 (2060ec1f9f, 2020-04-08)"
   sodipodi:docname="favicon.svg">
  <defs
     id="defs984" />
  <sodipodi:namedview
     id="base"
     pagecolor="#ffffff"
     bordercolor="#666666"
     borderopacity="1.0"
     inkscape:pageopacity="0.0"
     inkscape:pageshadow="2"
     inkscape:zoom="11.313709"
     inkscape:cx="53.499607"
     inkscape:cy="46.589448"
     inkscape:document-units="px"
     inkscape:current-layer="layer1"
     showgrid="true"
     units="px"
     inkscape:snap-object-midpoints="false"
     inkscape:snap-global="false"
     inkscape:window-width="3768"
     inkscape:window-height="2096"
     inkscape:window-x="72"
     inkscape:window-y="27"
     inkscape:window-maximized="1">
    <inkscape:grid
       type="xygrid"
       id="grid2382" />
  </sodipodi:namedview>
  <metadata
     id="metadata987">
    <rdf:RDF>
      <cc:Work
         rdf:about="">
        <dc:format>image/svg+xml</dc:format>
        <dc:type
           rdf:resource="http://purl.org/dc/dcmitype/StillImage" />
        <dc:title></dc:title>
      </cc:Work>
    </rdf:RDF>
  </metadata>
  <g
     inkscape:label="Layer 1"
     inkscape:groupmode="layer"
     id="layer1"
     transform="translate(0,-280.06665)">
    <ellipse
       style="fill:#ffffff;fill-opacity:1;stroke:#808080;stroke-width:0.07487708;stroke-miterlimit:4;stroke-dasharray:none;stroke-opacity:1"
       id="path2380"
       cx="8.4666672"
       cy="288.53333"
       rx="8.4666672"
       ry="8.0223312" />
    <path
       style="fill:none;stroke:#808080;stroke-width:0.07487708;stroke-linecap:butt;stroke-linejoin:miter;stroke-miterlimit:4;stroke-dasharray:none;stroke-opacity:1"
       d="m 2.4349935,283.38428 c -0.1612305,1.20716 0.041342,2.02571 0.041342,2.02571"
       id="path2410"
       inkscape:connector-curvature="0"
       sodipodi:nodetypes="cc" />
    <path
       style="fill:none;stroke:#808080;stroke-width:0.075;stroke-linecap:butt;stroke-linejoin:miter;stroke-miterlimit:4;stroke-dasharray:none;stroke-opacity:1"
       d="M 0.33471333,289.58368 C 0.48964613,289.3045 0.8506688,288.733 1.5288652,288.4436"
       id="path2412"
       inkscape:connector-curvature="0"
       sodipodi:nodetypes="cc" />
    <path
       style="fill:none;stroke:#808080;stroke-width:0.075;stroke-linecap:butt;stroke-linejoin:miter;stroke-miterlimit:4;stroke-dasharray:none;stroke-opacity:1"
       d="m 3.7816351,290.25988 c 0.088883,1.45521 0.1356748,2.06507 0.900486,3.2743"
       id="path2414"
       inkscape:connector-curvature="0"
       sodipodi:nodetypes="cc" />
    <path
       style="fill:none;stroke:#808080;stroke-width:0.075;stroke-linecap:butt;stroke-linejoin:miter;stroke-miterlimit:4;stroke-dasharray:none;stroke-opacity:1"
       d="M 3.55965,294.47765 C 2.7659,294.29162 2.3254138,293.99031 1.9843493,293.69266"
       id="path2416"
       inkscape:connector-curvature="0"
       sodipodi:nodetypes="cc" />
    <path
       style="fill:none;stroke:#808080;stroke-width:0.075;stroke-linecap:butt;stroke-linejoin:miter;stroke-miterlimit:4;stroke-dasharray:none;stroke-opacity:1"
       d="m 8.0632339,294.60988 c 0.8474935,-0.26251 2.3662291,-1.57392 2.8457871,-2.37593"
       id="path2418"
       inkscape:connector-curvature="0"
       sodipodi:nodetypes="cc" />
    <path
       style="fill:none;stroke:#808080;stroke-width:0.075;stroke-linecap:butt;stroke-linejoin:miter;stroke-opacity:1;stroke-miterlimit:4;stroke-dasharray:none"
       d="M 10.091095,289.2475 6.2674705,288.01973"
       id="path2420"
       inkscape:connector-curvature="0" />
    <path
       style="fill:none;stroke:#808080;stroke-width:0.075;stroke-linecap:butt;stroke-linejoin:miter;stroke-miterlimit:4;stroke-dasharray:none;stroke-opacity:1"
       d="m 5.4302931,285.02927 c 0.6407878,-0.93431 1.7080744,-1.83922 3.0557958,-2.43039"
       id="path2422"
       inkscape:connector-curvature="0"
       sodipodi:nodetypes="cc" />
    <path
       style="fill:none;stroke:#808080;stroke-width:0.075;stroke-linecap:butt;stroke-linejoin:miter;stroke-miterlimit:4;stroke-dasharray:none;stroke-opacity:1"
       d="M 8.1131474,281.25365 C 7.3380009,281.01388 5.9315147,281.0305 5.1170941,281.16485"
       id="path2424"
       inkscape:connector-curvature="0"
       sodipodi:nodetypes="cc" />
    <path
       style="fill:none;stroke:#808080;stroke-width:0.075;stroke-linecap:butt;stroke-linejoin:miter;stroke-miterlimit:4;stroke-dasharray:none;stroke-opacity:1"
       d="m 11.736891,283.74885 c 0.757124,0.96467 1.020218,2.3386 0.95883,3.42605"
       id="path2426"
       inkscape:connector-curvature="0"
       sodipodi:nodetypes="cc" />
    <path
       style="fill:none;stroke:#808080;stroke-width:0.075;stroke-linecap:butt;stroke-linejoin:miter;stroke-miterlimit:4;stroke-dasharray:none;stroke-opacity:1"
       d="m 13.163442,282.76662 c 1.958585,0.88283 2.80633,2.44093 3.303285,3.54008"
       id="path2428"
       inkscape:connector-curvature="0"
       sodipodi:nodetypes="cc" />
    <path
       style="fill:none;stroke:#808080;stroke-width:0.075;stroke-linecap:butt;stroke-linejoin:miter;stroke-miterlimit:4;stroke-dasharray:none;stroke-opacity:1"
       d="m 16.494039,287.6245 c -0.47439,0.64802 -0.864514,1.03364 -1.576615,1.19901"
       id="path2430"
       inkscape:connector-curvature="0"
       sodipodi:nodetypes="cc" />
    <path
       style="fill:none;stroke:#808080;stroke-width:0.075;stroke-linecap:butt;stroke-linejoin:miter;stroke-miterlimit:4;stroke-dasharray:none;stroke-opacity:1"
       d="m 13.856255,292.00413 c 0.315712,0.48234 0.619731,1.15469 0.572959,1.84458"
       id="path2432"
       inkscape:connector-curvature="0"
       sodipodi:nodetypes="cc" />
    <path
       style="fill:none;stroke:#808080;stroke-width:0.075;stroke-linecap:butt;stroke-linejoin:miter;stroke-miterlimit:4;stroke-dasharray:none;stroke-opacity:1"
       d="m 13.65991,294.86714 c -0.872444,0.39879 -2.706453,1.41665 -5.065524,1.10386"
       id="path2434"
       inkscape:connector-curvature="0"
       sodipodi:nodetypes="cc" />
    <path
       style="fill:#202020;fill-opacity:1;stroke:none;stroke-width:0.26458335px;stroke-linecap:butt;stroke-linejoin:miter;stroke-opacity:1"
       d="m 0.28628744,290.60037 0.0744141,-1.02939 -0.3389974,-0.45889 c 0.06407878,0.79065 0.26458335,1.48828 0.2645833,1.48828 z"
       id="path2398"
       inkscape:connector-curvature="0"
       sodipodi:nodetypes="cccc" />
    <path
       style="fill:#202020;fill-opacity:1;stroke:none;stroke-width:0.26458335px;stroke-linecap:butt;stroke-linejoin:miter;stroke-opacity:1"
       d="m 4.5193607,295.62897 c 0,0 -0.5183636,-0.45602 -1.0289876,-1.16053 0.2192445,-0.32741 0.7658942,-0.74251 1.1634576,-1.01437 1.1517646,0.65189 1.5844072,0.9296 3.4582172,1.10207 0.3800239,0.6782 0.6197313,1.44994 0.6197313,1.44994 -0.6080382,0.26894 -1.6370258,0.44433 -1.6370258,0.44433 -1.020218,-0.0848 -2.1568136,-0.62507 -2.5753927,-0.82144 z"
       id="path2400"
       inkscape:connector-curvature="0"
       sodipodi:nodetypes="ccccccc" />
    <path
       style="fill:#202020;fill-opacity:1;stroke:none;stroke-width:0.26458335px;stroke-linecap:butt;stroke-linejoin:miter;stroke-opacity:1"
       d="m 14.418982,293.76101 -0.697197,1.05822 c 0.301096,-0.22655 0.931058,-0.73666 1.32716,-1.23946 z"
       id="path2402"
       inkscape:connector-curvature="0"
       sodipodi:nodetypes="cccc" />
    <path
       style="fill:#202020;fill-opacity:1;stroke:none;stroke-width:0.26458335px;stroke-linecap:butt;stroke-linejoin:miter;stroke-opacity:1"
       d="m 16.439869,287.66539 c 0.229444,0.30386 0.418275,0.77374 0.490622,0.91844 0.0021,-1.31775 -0.351225,-2.34369 -0.351225,-2.34369 l -0.164039,0.0178 c 0.09922,0.76275 0.07425,1.0581 0.02464,1.40743 z"
       id="path2404"
       inkscape:connector-curvature="0"
       sodipodi:nodetypes="ccccc" />
    <path
       style="fill:#202020;fill-opacity:1;stroke:none;stroke-width:0.26458335px;stroke-linecap:butt;stroke-linejoin:miter;stroke-opacity:1"
       d="m 10.083105,289.19891 c 1.012858,-1.21543 1.814878,-1.70739 2.608628,-2.1332 1.211295,0.40101 1.831411,1.17822 2.315103,1.73633 0.103353,1.13275 -0.839225,2.81533 -1.107943,3.25355 -0.959114,0.45475 -2.385384,0.34312 -3.017904,0.26044 -0.318326,-0.63665 -0.802018,-2.70784 -0.797884,-3.11712 z"
       id="path2406"
       inkscape:connector-curvature="0"
       sodipodi:nodetypes="cccccc" />
    <path
       style="fill:#202020;fill-opacity:1;stroke:none;stroke-width:0.26458335px;stroke-linecap:butt;stroke-linejoin:miter;stroke-opacity:1"
       d="m 7.9416343,281.20767 c 0.041341,0.40514 0.2315104,1.24437 0.3762044,1.51309 1.3063802,0.091 2.1662753,0.28524 3.4685223,1.12033 0.165364,-0.0703 1.451074,-0.9219 1.508952,-1.00872 -0.09095,-0.27285 -1.335319,-1.90995 -3.8075198,-1.95543 0,0 -0.9095052,0.0124 -1.5461589,0.33073 z"
       id="path2408"
       inkscape:connector-curvature="0"
       sodipodi:nodetypes="cccccc" />
    <path
       style="fill:#202020;fill-opacity:1;stroke:none;stroke-width:0.26458335px;stroke-linecap:butt;stroke-linejoin:miter;stroke-opacity:1"
       d="m 1.6691339,283.75303 0.7771549,-0.22708 1.299406,-1.65362 c -0.4190807,0.28267 -1.2791992,0.86305 -2.0765609,1.8807 z"
       id="path2396"
       inkscape:connector-curvature="0"
       sodipodi:nodetypes="cccc" />
    <path
       style="fill:#202020;fill-opacity:1;stroke:#202020;stroke-width:0.26458335px;stroke-linecap:butt;stroke-linejoin:miter;stroke-opacity:1"
       d="m 2.5581356,285.39924 c 1.3668221,-0.66949 2.8519515,-0.37567 2.8519515,-0.37567 0.3961183,1.10624 0.5884236,2.07759 0.7528244,2.98057 -0.7658942,0.77759 -1.9033252,1.78342 -2.3885864,2.16929 -0.5904987,-0.30987 -1.8403905,-1.32441 -2.1619491,-1.74536 0.1870887,-1.78903 0.9457596,-3.02883 0.9457596,-3.02883 z"
       id="path2394"
       inkscape:connector-curvature="0"
       sodipodi:nodetypes="cccccc" />
  </g>
</svg>
